<?xml version="1.0" standalone="no"?>
<!DOCTYPE svg PUBLIC "-//W3C//DTD SVG 20010904//EN"
 "http://www.w3.org/TR/2001/REC-SVG-20010904/DTD/svg10.dtd">
<svg version="1.0" xmlns="http://www.w3.org/2000/svg"
 width="281.000000pt" height="179.000000pt" viewBox="0 0 281.000000 179.000000"
 preserveAspectRatio="xMidYMid meet">

<g transform="translate(0.000000,179.000000) scale(0.100000,-0.100000)"
fill="#000000" stroke="none">
<path d="M2529 1475 c-37 -20 -54 -64 -38 -98 12 -26 63 -57 94 -57 33 0 83
32 95 59 31 75 -71 140 -151 96z m120 -31 c27 -34 26 -50 -4 -79 -16 -17 -35
-25 -60 -25 -25 0 -44 8 -60 25 -30 29 -31 45 -4 79 16 21 29 26 64 26 35 0
48 -5 64 -26z"/>
<path d="M2540 1411 c0 -30 4 -41 15 -41 8 0 15 7 15 15 0 8 5 15 10 15 6 0
13 -7 16 -15 4 -8 13 -15 21 -15 8 0 11 5 7 11 -4 7 -7 24 -8 38 -1 23 -6 26
-38 29 l-38 3 0 -40z m52 14 c0 -5 -5 -11 -11 -13 -6 -2 -11 4 -11 13 0 9 5
15 11 13 6 -2 11 -8 11 -13z"/>
<path d="M1235 1463 c-498 -29 -898 -170 -972 -343 -79 -186 198 -367 680
-444 476 -77 1116 -3 1396 161 103 60 170 147 171 221 1 132 -202 265 -523
341 -212 50 -529 78 -752 64z m528 -48 c144 -19 315 -62 422 -104 79 -32 195
-99 195 -113 0 -11 -18 -10 -25 2 -10 17 -28 11 -21 -6 5 -13 3 -14 -6 -7 -17
14 -98 22 -91 9 4 -5 -6 -6 -23 -1 -125 32 -329 65 -408 65 l-55 0 -64 -107
c-89 -149 -111 -193 -94 -193 17 0 75 62 116 123 28 41 36 47 66 47 19 0 35
-5 35 -11 0 -6 -15 -36 -33 -67 -43 -74 -50 -92 -34 -92 17 0 76 62 116 123
28 41 36 47 68 47 27 0 34 -3 30 -15 -5 -11 4 -9 34 6 37 20 41 20 64 5 33
-21 32 -42 -5 -99 -16 -26 -30 -52 -30 -57 0 -24 24 -5 76 59 63 77 109 104
170 99 34 -3 39 -6 42 -30 3 -22 -3 -32 -30 -48 -18 -11 -50 -25 -71 -31 -28
-7 -37 -14 -33 -25 3 -9 6 -20 6 -25 0 -18 56 -8 93 16 20 14 37 29 37 33 1
12 51 65 57 59 10 -11 -60 -90 -106 -119 -74 -46 -161 -32 -161 26 0 20 -2 19
-23 -6 -46 -54 -111 -62 -123 -14 -6 24 25 98 46 111 14 8 13 35 -1 35 -15 0
-73 -64 -111 -122 -28 -44 -33 -48 -71 -48 -32 0 -38 3 -29 12 23 23 12 29
-14 9 -15 -12 -41 -21 -61 -21 -29 0 -34 4 -39 29 l-6 28 -26 -24 c-43 -40
-72 -47 -101 -25 -24 18 -26 18 -62 -2 -35 -19 -38 -19 -63 -3 -14 10 -26 27
-26 38 0 18 -3 18 -37 -10 -50 -38 -77 -46 -97 -26 -24 24 -20 55 14 105 34
50 36 60 16 60 -18 0 -77 -65 -111 -124 -25 -42 -30 -46 -66 -46 l-40 0 17 33
17 32 -24 -22 c-65 -59 -162 -67 -182 -14 l-10 28 -44 -25 c-47 -26 -171 -47
-187 -32 -14 14 0 23 34 22 36 -1 57 26 89 113 13 33 32 75 43 93 11 17 18 32
16 32 -2 0 -34 -39 -72 -88 -93 -117 -209 -217 -193 -166 16 52 79 209 88 221
6 7 9 13 6 13 -3 0 -40 -43 -81 -96 -93 -119 -125 -144 -183 -144 -42 0 -83
25 -83 51 0 25 22 49 46 49 29 0 42 -25 26 -50 -14 -22 -6 -30 29 -30 38 0 77
36 157 143 82 110 94 130 58 97 -22 -20 -26 -21 -20 -6 5 14 4 17 -5 12 -7 -5
-66 -9 -131 -10 l-119 -1 27 23 c96 83 407 175 683 201 63 6 132 13 154 15 82
8 424 -4 538 -19z m87 -189 c20 -25 8 -61 -22 -64 -37 -4 -57 31 -32 59 20 23
37 24 54 5z"/>
<path d="M1570 1259 c-52 -4 -159 -19 -238 -34 -78 -14 -173 -28 -211 -29 -38
-2 -74 -7 -81 -11 -9 -6 -11 -4 -5 5 6 9 -4 11 -44 9 -28 -2 -51 0 -51 4 0 22
-23 -12 -61 -88 -25 -53 -56 -98 -82 -121 -40 -36 -40 -37 -11 -30 44 11 93
45 108 74 20 38 55 68 100 87 45 19 101 13 110 -11 9 -24 -45 -72 -98 -85 -48
-12 -55 -23 -33 -54 28 -38 103 9 168 105 32 47 37 49 78 50 38 0 42 -2 30
-16 -8 -10 0 -8 24 6 43 25 82 21 92 -10 6 -19 -15 -71 -42 -102 -8 -9 -13
-24 -11 -34 3 -17 23 1 113 103 46 53 102 74 137 51 23 -15 24 -14 67 59 23
41 41 76 39 77 -2 1 -46 -2 -98 -5z"/>
<path d="M815 1220 c-4 -6 -11 -7 -17 -4 -7 4 -8 2 -4 -5 6 -9 11 -9 22 0 14
11 18 19 10 19 -3 0 -8 -5 -11 -10z"/>
<path d="M718 1120 c-46 -95 -35 -95 31 1 45 65 48 74 27 82 -10 4 -27 -20
-58 -83z"/>
<path d="M1008 1103 c-9 -10 -21 -28 -27 -40 -9 -19 -9 -23 2 -23 19 0 57 43
57 63 0 22 -13 22 -32 0z"/>
<path d="M1509 1088 c-36 -40 -56 -95 -40 -111 22 -22 91 70 91 122 0 30 -16
26 -51 -11z"/>
<path d="M2218 1103 c-16 -19 -38 -58 -38 -68 0 -9 44 17 57 34 14 18 17 51 5
51 -5 0 -16 -8 -24 -17z"/>
<path d="M60 420 c0 -62 19 -86 21 -27 l1 32 7 -29 c9 -45 27 -42 36 6 l9 43
6 -45 c7 -44 7 -43 8 18 2 73 -14 81 -33 16 l-12 -39 -7 43 c-5 26 -13 42 -22
42 -10 0 -14 -15 -14 -60z"/>
<path d="M180 420 l0 -60 35 0 c19 0 35 5 35 10 0 6 -13 10 -30 10 -20 0 -30
5 -30 15 0 9 9 15 25 15 14 0 25 5 25 10 0 6 -12 10 -26 10 -34 0 -26 24 9 28
39 5 33 22 -8 22 l-35 0 0 -60z"/>
<path d="M270 420 c0 -61 19 -87 21 -27 l0 32 16 -32 c27 -53 43 -42 43 27 0
33 -4 60 -10 60 -5 0 -10 -19 -11 -42 l0 -43 -22 43 c-11 23 -25 42 -29 42 -4
0 -8 -27 -8 -60z"/>
<path d="M370 420 c0 -59 0 -60 28 -60 38 0 52 17 52 62 0 40 -19 58 -59 58
-19 0 -21 -6 -21 -60z m58 -3 c3 -32 0 -37 -17 -37 -18 0 -21 6 -21 41 0 33 3
40 18 37 12 -2 18 -14 20 -41z"/>
<path d="M470 420 c0 -33 4 -60 10 -60 6 0 10 27 10 60 0 33 -4 60 -10 60 -6
0 -10 -27 -10 -60z"/>
<path d="M510 420 c0 -33 4 -60 10 -60 6 0 10 15 10 33 l0 32 20 -32 c29 -48
40 -41 40 27 0 66 -17 83 -22 23 l-3 -38 -20 38 c-10 20 -22 37 -27 37 -4 0
-8 -27 -8 -60z"/>
<path d="M610 420 l0 -60 35 0 c19 0 35 5 35 10 0 6 -11 10 -25 10 -16 0 -25
6 -25 15 0 9 9 15 25 15 14 0 25 5 25 10 0 6 -11 10 -25 10 -16 0 -25 6 -25
15 0 9 9 15 25 15 14 0 25 5 25 10 0 6 -16 10 -35 10 l-35 0 0 -60z"/>
<path d="M740 420 c0 -33 4 -60 10 -60 6 0 10 9 10 20 0 13 7 20 20 20 12 0
25 10 32 25 14 32 -4 55 -43 55 -29 0 -29 -1 -29 -60z m55 20 c0 -8 -8 -16
-17 -18 -13 -2 -18 3 -18 18 0 15 5 20 18 18 9 -2 17 -10 17 -18z"/>
<path d="M843 420 c0 -36 2 -53 4 -37 3 21 10 27 29 27 19 0 24 -5 25 -27 1
-27 1 -27 8 -4 3 13 4 42 1 65 -3 33 -5 36 -8 14 -3 -22 -9 -28 -27 -28 -18 0
-25 6 -28 28 -2 15 -4 -2 -4 -38z"/>
<path d="M965 468 c-27 -73 -34 -102 -29 -107 4 -3 9 0 11 7 3 6 15 12 28 12
13 0 25 -6 28 -12 2 -7 7 -10 11 -6 9 8 -25 118 -36 118 -5 0 -11 -6 -13 -12z
m25 -60 c0 -5 -7 -8 -15 -8 -17 0 -18 2 -9 25 5 13 8 14 15 3 5 -7 9 -16 9
-20z"/>
<path d="M1040 420 c0 -33 4 -60 10 -60 6 0 10 12 10 28 l1 27 24 -30 c26 -32
43 -29 26 4 -9 15 -8 26 1 40 16 26 -5 51 -43 51 -29 0 -29 -1 -29 -60z m57
24 c2 -6 -5 -14 -17 -17 -15 -4 -20 0 -20 15 0 21 30 23 37 2z"/>
<path d="M1140 420 c0 -65 19 -85 21 -22 l2 37 6 -34 c9 -50 27 -49 36 1 l9
43 6 -45 c7 -44 7 -43 8 18 2 73 -14 81 -33 16 l-12 -39 -7 43 c-5 26 -13 42
-22 42 -10 0 -14 -15 -14 -60z"/>
<path d="M1267 423 c-16 -55 -15 -82 3 -53 12 20 38 21 49 2 5 -9 12 -14 15
-11 8 8 -28 112 -41 116 -5 2 -17 -22 -26 -54z m43 -15 c0 -5 -7 -8 -15 -8
-17 0 -18 2 -9 25 5 13 8 14 15 3 5 -7 9 -16 9 -20z"/>
<path d="M1364 455 c-23 -35 -9 -89 24 -93 25 -4 55 15 46 29 -3 5 -12 2 -21
-6 -30 -30 -58 25 -33 65 8 13 13 13 31 2 18 -12 20 -11 17 5 -5 29 -44 28
-64 -2z"/>
<path d="M1460 420 l0 -60 35 0 c19 0 35 5 35 10 0 6 -11 10 -25 10 -16 0 -25
6 -25 15 0 9 9 15 25 15 14 0 25 5 25 10 0 6 -11 10 -25 10 -16 0 -25 6 -25
15 0 9 9 15 25 15 14 0 25 5 25 10 0 6 -16 10 -35 10 l-35 0 0 -60z"/>
<path d="M1550 436 c0 -62 8 -76 40 -76 32 0 40 14 40 76 0 62 -18 55 -22 -8
-2 -39 -7 -53 -18 -53 -11 0 -16 14 -18 53 -4 63 -22 70 -22 8z"/>
<path d="M1645 470 c-3 -5 0 -10 8 -10 20 0 26 -20 20 -63 -3 -23 0 -37 6 -37
6 0 11 21 11 50 0 38 4 50 15 50 8 0 15 5 15 10 0 6 -15 10 -34 10 -19 0 -38
-4 -41 -10z"/>
<path d="M1740 420 c0 -35 2 -61 5 -59 7 8 9 108 2 116 -4 3 -7 -22 -7 -57z"/>
<path d="M1784 455 c-23 -35 -9 -89 24 -93 26 -4 55 15 46 30 -3 5 -13 3 -23
-6 -31 -28 -56 25 -31 64 8 13 13 13 31 2 18 -12 20 -11 17 5 -5 29 -44 28
-64 -2z"/>
<path d="M1905 468 c-26 -73 -34 -102 -29 -107 3 -3 10 2 15 12 12 21 23 22
44 1 25 -26 28 -10 9 50 -17 55 -30 69 -39 44z m24 -60 c1 -5 -6 -8 -15 -8
-11 0 -14 5 -10 16 3 9 6 21 7 27 0 12 17 -20 18 -35z"/>
<path d="M1980 420 l0 -60 35 0 c19 0 35 5 35 10 0 6 -11 10 -25 10 -23 0 -25
3 -25 50 0 28 -4 50 -10 50 -6 0 -10 -27 -10 -60z"/>
<path d="M2071 466 c-17 -21 -7 -44 24 -56 27 -10 32 -24 13 -36 -6 -4 -17 1
-24 11 -16 21 -30 14 -20 -10 4 -11 16 -15 38 -13 28 2 33 7 33 28 0 17 -8 29
-27 38 -29 14 -37 32 -15 32 7 0 19 -6 26 -12 10 -11 12 -9 9 7 -4 25 -40 31
-57 11z"/>
<path d="M2201 418 c1 -35 4 -53 6 -41 2 13 13 23 25 25 52 8 47 70 -6 76 -26
3 -26 3 -25 -60z m49 28 c0 -8 -5 -18 -11 -22 -14 -8 -33 11 -25 25 10 16 36
13 36 -3z"/>
<path d="M2284 464 c4 -9 11 -36 17 -60 6 -24 17 -44 24 -44 7 0 18 20 24 44
6 24 13 51 17 60 3 9 1 16 -5 16 -5 0 -15 -18 -21 -40 -6 -22 -13 -40 -15 -40
-2 0 -9 18 -15 40 -6 22 -16 40 -21 40 -6 0 -8 -7 -5 -16z"/>
<path d="M2380 471 c0 -5 7 -11 15 -15 12 -4 15 -17 12 -51 -2 -25 0 -45 5
-45 4 0 8 23 8 50 0 38 4 50 15 50 8 0 15 5 15 10 0 6 -16 10 -35 10 -19 0
-35 -4 -35 -9z"/>
<path d="M2530 420 l0 -60 35 0 c19 0 35 5 35 10 0 6 -11 10 -25 10 -23 0 -25
3 -25 50 0 28 -4 50 -10 50 -6 0 -10 -27 -10 -60z"/>
<path d="M2600 470 c0 -5 7 -10 15 -10 11 0 15 -12 15 -50 0 -27 5 -50 10 -50
6 0 10 23 10 50 0 39 4 50 16 50 8 0 12 5 9 10 -3 6 -22 10 -41 10 -19 0 -34
-4 -34 -10z"/>
<path d="M2690 420 c0 -59 0 -60 28 -60 38 0 52 17 52 62 0 40 -19 58 -59 58
-19 0 -21 -6 -21 -60z m58 -3 c3 -32 0 -37 -17 -37 -18 0 -21 6 -21 41 0 33 3
40 18 37 12 -2 18 -14 20 -41z"/>
<path d="M2450 370 c0 -5 5 -10 10 -10 6 0 10 5 10 10 0 6 -4 10 -10 10 -5 0
-10 -4 -10 -10z"/>
<path d="M78 178 c-19 -43 -16 -60 4 -40 15 15 48 16 48 2 0 -5 7 -10 15 -10
11 0 11 7 -5 43 -10 23 -25 43 -32 45 -7 1 -21 -17 -30 -40z m37 3 c3 -5 1
-12 -5 -16 -5 -3 -10 1 -10 9 0 18 6 21 15 7z"/>
<path d="M310 175 c0 -33 4 -45 15 -45 11 0 15 12 15 45 0 33 -4 45 -15 45
-11 0 -15 -12 -15 -45z"/>
<path d="M363 204 c-4 -10 1 -22 10 -29 21 -15 22 -39 2 -31 -8 3 -15 1 -15
-4 0 -16 50 -11 57 5 3 9 -3 25 -12 35 -16 18 -17 20 -2 20 10 0 17 5 17 10 0
17 -50 11 -57 -6z"/>
<path d="M452 208 c-17 -17 -15 -65 4 -72 26 -10 69 -7 82 6 18 18 14 56 -7
68 -26 14 -64 13 -79 -2z m66 -40 c-4 -28 -22 -33 -42 -13 -12 13 -13 21 -6
36 9 16 15 17 31 8 13 -6 19 -18 17 -31z"/>
<path d="M627 214 c-13 -13 -7 -42 9 -48 13 -5 14 -9 4 -21 -10 -12 -9 -15 4
-15 20 0 49 43 44 67 -3 18 -47 30 -61 17z m43 -25 c0 -5 -7 -9 -15 -9 -15 0
-20 12 -9 23 8 8 24 -1 24 -14z"/>
<path d="M722 208 c-14 -14 -15 -47 -3 -66 5 -8 21 -12 37 -10 23 2 30 8 32
31 6 47 -36 75 -66 45z m42 -23 c6 -18 -2 -45 -15 -45 -5 0 -9 14 -9 30 0 32
14 40 24 15z"/>
<path d="M809 199 c-16 -31 3 -69 36 -69 17 0 29 8 36 24 15 32 -4 66 -36 66
-15 0 -29 -9 -36 -21z m49 -24 c-4 -33 -22 -33 -26 0 -2 18 1 25 13 25 12 0
15 -7 13 -25z"/>
<path d="M934 210 c-12 -12 -6 -80 7 -80 5 0 9 20 9 45 0 48 -1 50 -16 35z"/>
<path d="M1057 213 c-14 -13 -6 -24 13 -18 25 8 25 0 -1 -36 l-20 -29 38 1
c21 1 30 3 21 6 -22 5 -22 8 -2 38 9 13 13 29 9 35 -7 11 -48 14 -58 3z"/>
<path d="M1151 206 c-7 -8 -11 -27 -9 -43 2 -23 8 -29 35 -31 28 -3 33 0 39
24 4 15 2 34 -3 43 -14 22 -47 25 -62 7z m39 -36 c0 -16 -4 -30 -9 -30 -12 0
-24 37 -16 50 12 20 25 10 25 -20z"/>
<path d="M1340 195 c0 -16 6 -25 15 -25 24 0 17 -28 -7 -33 -17 -3 -14 -5 10
-6 43 -1 54 25 21 50 l-24 19 23 0 c12 0 22 5 22 10 0 6 -13 10 -30 10 -25 0
-30 -4 -30 -25z"/>
<path d="M1485 200 c-15 -17 -16 -24 -7 -45 9 -20 19 -25 47 -25 19 0 35 4 35
9 0 5 -8 7 -18 4 -22 -5 -46 21 -38 42 3 8 17 15 31 15 14 0 25 5 25 10 0 18
-56 10 -75 -10z"/>
<path d="M1770 210 c0 -5 5 -10 10 -10 6 0 10 5 10 10 0 6 -4 10 -10 10 -5 0
-10 -4 -10 -10z"/>
<path d="M1812 204 c-10 -18 -3 -74 9 -74 5 0 9 9 9 19 0 11 4 22 10 26 5 3 7
12 3 21 -4 12 0 14 21 8 16 -4 26 -2 26 5 0 17 -68 13 -78 -5z"/>
<path d="M2020 207 c0 -7 -10 -17 -22 -22 -13 -6 -23 -19 -23 -30 0 -15 8 -21
33 -23 32 -3 32 -3 32 42 0 25 -4 46 -10 46 -5 0 -10 -6 -10 -13z m0 -47 c0
-11 -4 -20 -10 -20 -5 0 -10 9 -10 20 0 11 5 20 10 20 6 0 10 -9 10 -20z"/>
<path d="M2126 204 c-19 -18 -21 -45 -4 -62 15 -15 78 -16 78 -1 0 5 -5 7 -10
4 -6 -3 -19 -3 -31 0 -31 10 -21 49 14 53 15 2 27 8 27 13 0 15 -57 10 -74 -7z"/>
<path d="M1259 205 c-3 -2 -3 -20 -1 -40 6 -50 29 -46 24 5 -4 37 -11 48 -23
35z"/>
<path d="M1717 194 c-4 -4 -7 -20 -7 -36 0 -20 5 -28 18 -28 13 0 17 8 16 32
-1 31 -13 45 -27 32z"/>
<path d="M170 161 c0 -22 5 -31 16 -31 11 0 15 6 11 20 -3 11 -1 23 4 26 5 3
9 -6 9 -20 0 -17 6 -26 16 -26 11 0 14 8 12 28 -2 22 -8 28 -35 30 -31 3 -33
1 -33 -27z"/>
<path d="M1000 180 c0 -5 5 -10 10 -10 6 0 10 5 10 10 0 6 -4 10 -10 10 -5 0
-10 -4 -10 -10z"/>
<path d="M1577 176 c-10 -27 4 -46 32 -45 17 1 20 3 9 6 -25 6 -22 23 3 23 29
0 18 24 -13 28 -16 2 -28 -3 -31 -12z"/>
<path d="M1650 160 c0 -20 5 -30 15 -30 9 0 12 6 8 16 -4 11 1 22 12 30 18 13
17 14 -8 14 -23 0 -27 -4 -27 -30z"/>
<path d="M1770 160 c0 -16 5 -30 10 -30 6 0 10 14 10 30 0 17 -4 30 -10 30 -5
0 -10 -13 -10 -30z"/>
<path d="M1860 160 c0 -20 5 -30 15 -30 10 0 15 10 15 30 0 20 -5 30 -15 30
-10 0 -15 -10 -15 -30z"/>
<path d="M1904 175 c-10 -26 4 -45 33 -44 17 1 21 3 11 6 -22 5 -24 23 -3 23
8 0 15 7 15 15 0 9 -9 15 -25 15 -14 0 -28 -7 -31 -15z"/>
<path d="M2214 175 c-4 -8 -4 -22 0 -30 7 -20 62 -20 70 0 10 26 -5 45 -35 45
-17 0 -32 -6 -35 -15z m46 -21 c0 -16 -16 -19 -25 -4 -8 13 4 32 16 25 5 -4 9
-13 9 -21z"/>
<path d="M2300 160 c0 -19 5 -30 14 -30 9 0 12 7 9 19 -3 10 0 22 6 25 7 5 11
-3 11 -18 0 -16 6 -26 15 -26 9 0 15 10 15 26 0 15 4 23 11 18 6 -3 9 -15 6
-25 -3 -12 0 -19 9 -19 9 0 14 11 14 29 0 28 -1 29 -55 30 -54 0 -55 0 -55
-29z"/>
<path d="M2428 150 c2 -22 8 -40 13 -40 5 0 9 5 9 10 0 6 9 10 19 10 10 0 21
7 25 15 10 27 -5 45 -38 45 -31 0 -31 -1 -28 -40z m42 10 c0 -11 -4 -20 -10
-20 -5 0 -10 9 -10 20 0 11 5 20 10 20 6 0 10 -9 10 -20z"/>
<path d="M2525 181 c19 -8 19 -8 -3 -20 -32 -17 -27 -31 11 -31 32 0 33 2 29
30 -4 25 -9 30 -31 29 -23 0 -23 -1 -6 -8z"/>
<path d="M2580 161 c0 -20 5 -31 14 -31 9 0 12 7 9 19 -3 10 0 22 6 25 7 5 11
-3 11 -18 0 -17 6 -26 16 -26 11 0 14 8 12 28 -2 22 -8 28 -35 30 -31 3 -33 1
-33 -27z"/>
<path d="M2660 184 c0 -3 5 -14 11 -25 8 -15 7 -24 -2 -36 -11 -13 -10 -15 6
-12 21 4 61 66 50 77 -3 4 -12 -1 -20 -11 -11 -15 -13 -16 -19 -2 -5 14 -26
22 -26 9z"/>
<path d="M1000 140 c0 -5 7 -10 16 -10 8 0 12 5 9 10 -3 6 -10 10 -16 10 -5 0
-9 -4 -9 -10z"/>
</g>
</svg>
